<svg xmlns="http://www.w3.org/2000/svg" xmlns:xlink="http://www.w3.org/1999/xlink" width="170" zoomAndPan="magnify" viewBox="0 0 127.5 38.999999" height="52" preserveAspectRatio="xMidYMid meet" version="1.0"><defs><g/><clipPath id="adbe0faf1d"><path d="M 2 0.0742188 L 126 0.0742188 L 126 38.921875 L 2 38.921875 Z M 2 0.0742188 " clip-rule="nonzero"/></clipPath><clipPath id="6aa71e507e"><path d="M 0.628906 2 L 123.507812 2 L 123.507812 38.921875 L 0.628906 38.921875 Z M 0.628906 2 " clip-rule="nonzero"/></clipPath><clipPath id="8a9918302f"><path d="M 114 0.464844 L 123 0.464844 L 123 34 L 114 34 Z M 114 0.464844 " clip-rule="nonzero"/></clipPath><clipPath id="ffd8b287ec"><rect x="0" width="124" y="0" height="37"/></clipPath><clipPath id="477806204e"><path d="M 36 0.554688 L 89 0.554688 L 89 37 L 36 37 Z M 36 0.554688 " clip-rule="nonzero"/></clipPath><clipPath id="a8d48476c1"><path d="M 38 7 L 52.605469 7 L 52.605469 25 L 38 25 Z M 38 7 " clip-rule="nonzero"/></clipPath><clipPath id="cab2008126"><path d="M 0.25 6 L 15 6 L 15 24 L 0.25 24 Z M 0.25 6 " clip-rule="nonzero"/></clipPath><clipPath id="72f1c7c069"><rect x="0" width="53" y="0" height="37"/></clipPath><clipPath id="28366bfada"><rect x="0" width="124" y="0" height="39"/></clipPath></defs><g clip-path="url(#adbe0faf1d)"><g transform="matrix(1, 0, 0, 1, 2, 0.000000000000000555)"><g clip-path="url(#28366bfada)"><g clip-path="url(#6aa71e507e)"><g transform="matrix(1, 0, 0, 1, 0, 2)"><g clip-path="url(#ffd8b287ec)"><g fill="#ffffff" fill-opacity="1"><g transform="translate(0.904763, 33.357384)"><g><path d="M 17.796875 0 L 17.3125 0 C 16.3125 0 15.46875 -0.222656 14.78125 -0.671875 C 14.09375 -1.128906 13.46875 -1.847656 12.90625 -2.828125 L 11.21875 -0.546875 C 11.09375 -0.503906 10.757812 -0.4375 10.21875 -0.34375 C 9.675781 -0.257812 9.03125 -0.179688 8.28125 -0.109375 C 7.539062 -0.0351562 6.765625 0 5.953125 0 C 4.117188 0 2.875 -0.347656 2.21875 -1.046875 C 1.570312 -1.742188 1.25 -2.597656 1.25 -3.609375 C 1.25 -4.210938 1.332031 -4.832031 1.5 -5.46875 C 1.675781 -6.113281 1.867188 -6.6875 2.078125 -7.1875 C 2.285156 -7.6875 2.425781 -8.007812 2.5 -8.15625 L 3.609375 -7.828125 C 3.609375 -7.828125 3.546875 -7.582031 3.421875 -7.09375 C 3.296875 -6.601562 3.234375 -6.148438 3.234375 -5.734375 C 3.234375 -5.367188 3.300781 -5.03125 3.4375 -4.71875 C 3.570312 -4.414062 3.894531 -4.171875 4.40625 -3.984375 C 4.925781 -3.804688 5.75 -3.71875 6.875 -3.71875 C 8.125 -3.71875 9.210938 -3.738281 10.140625 -3.78125 C 11.078125 -3.832031 11.835938 -3.867188 12.421875 -3.890625 C 12.304688 -4.191406 12.097656 -4.695312 11.796875 -5.40625 C 11.503906 -6.113281 11.066406 -7.191406 10.484375 -8.640625 C 9.910156 -10.085938 9.113281 -12.070312 8.09375 -14.59375 L 10.25 -17.359375 L 10.921875 -17.359375 L 13.71875 -8.375 C 14.101562 -7.28125 14.410156 -6.421875 14.640625 -5.796875 C 14.878906 -5.171875 15.113281 -4.707031 15.34375 -4.40625 C 15.582031 -4.113281 15.882812 -3.925781 16.25 -3.84375 C 16.613281 -3.757812 17.128906 -3.71875 17.796875 -3.71875 L 18.375 -3.609375 L 18.375 -0.109375 Z M 17.796875 0 "/></g></g></g><g fill="#ffffff" fill-opacity="1"><g transform="translate(18.700788, 33.357384)"><g><path d="M 9.15625 -9.96875 C 8.59375 -9.96875 8.015625 -9.691406 7.421875 -9.140625 C 6.835938 -8.585938 6.3125 -7.898438 5.84375 -7.078125 C 5.375 -6.253906 5.03125 -5.425781 4.8125 -4.59375 C 5.300781 -4.25 6.007812 -3.988281 6.9375 -3.8125 C 7.875 -3.644531 8.910156 -3.539062 10.046875 -3.5 C 11.191406 -3.46875 12.289062 -3.453125 13.34375 -3.453125 C 13.195312 -3.742188 13.050781 -4.054688 12.90625 -4.390625 C 12.757812 -4.722656 12.597656 -5.085938 12.421875 -5.484375 C 12.109375 -6.242188 11.796875 -6.960938 11.484375 -7.640625 C 11.179688 -8.328125 10.84375 -8.882812 10.46875 -9.3125 C 10.101562 -9.75 9.664062 -9.96875 9.15625 -9.96875 Z M 17.75 0 C 16.769531 0 16 -0.1875 15.4375 -0.5625 C 14.875 -0.945312 14.382812 -1.492188 13.96875 -2.203125 L 12.125 0.25 C 11.414062 0.226562 10.585938 0.175781 9.640625 0.09375 C 8.703125 0.0078125 7.8125 -0.113281 6.96875 -0.28125 C 6.125 -0.457031 5.492188 -0.695312 5.078125 -1 C 5.023438 -1.039062 4.898438 -1.21875 4.703125 -1.53125 C 4.503906 -1.851562 4.3125 -2.210938 4.125 -2.609375 C 3.800781 -1.867188 3.359375 -1.25 2.796875 -0.75 C 2.234375 -0.25 1.300781 0 0 0 L -0.59375 -0.109375 L -0.59375 -3.609375 L 0 -3.71875 C 1.414062 -3.71875 2.519531 -4.007812 3.3125 -4.59375 C 3.382812 -5.53125 3.613281 -6.519531 4 -7.5625 C 4.394531 -8.601562 4.90625 -9.578125 5.53125 -10.484375 C 6.15625 -11.390625 6.859375 -12.128906 7.640625 -12.703125 C 8.429688 -13.273438 9.253906 -13.5625 10.109375 -13.5625 C 10.816406 -13.5625 11.421875 -13.332031 11.921875 -12.875 C 12.429688 -12.425781 12.894531 -11.816406 13.3125 -11.046875 C 13.726562 -10.273438 14.128906 -9.398438 14.515625 -8.421875 C 14.984375 -7.265625 15.359375 -6.34375 15.640625 -5.65625 C 15.921875 -4.96875 16.238281 -4.472656 16.59375 -4.171875 C 16.945312 -3.867188 17.457031 -3.71875 18.125 -3.71875 L 18.53125 -3.71875 L 19.125 -3.609375 L 19.125 -0.109375 L 18.53125 0 Z M 17.75 0 "/></g></g></g><g fill="#ffffff" fill-opacity="1"><g transform="translate(37.232185, 33.357384)"><g><path d="M -0.59375 -3.71875 L 1.5 -3.71875 L 1.5 0 L -0.59375 0 Z M -0.59375 -3.71875 "/></g></g></g><g fill="#ffffff" fill-opacity="1"><g transform="translate(38.114631, 33.357384)"><g><path d="M -0.59375 -3.71875 L 1.5 -3.71875 L 1.5 0 L -0.59375 0 Z M -0.59375 -3.71875 "/></g></g></g><g fill="#ffffff" fill-opacity="1"><g transform="translate(38.997077, 33.357384)"><g><path d="M -0.59375 -3.71875 L 1.5 -3.71875 L 1.5 0 L -0.59375 0 Z M -0.59375 -3.71875 "/></g></g></g><g fill="#ffffff" fill-opacity="1"><g transform="translate(39.879523, 33.357384)"><g><path d="M -0.59375 -3.71875 L 1.5 -3.71875 L 1.5 0 L -0.59375 0 Z M -0.59375 -3.71875 "/></g></g></g><g fill="#ffffff" fill-opacity="1"><g transform="translate(40.761966, 33.357384)"><g><path d="M -0.59375 -3.71875 L 1.5 -3.71875 L 1.5 0 L -0.59375 0 Z M -0.59375 -3.71875 "/></g></g></g><g fill="#ffffff" fill-opacity="1"><g transform="translate(41.644414, 33.357384)"><g><path d="M -0.59375 -3.71875 L 1.5 -3.71875 L 1.5 0 L -0.59375 0 Z M -0.59375 -3.71875 "/></g></g></g><g fill="#ffffff" fill-opacity="1"><g transform="translate(42.526863, 33.357384)"><g><path d="M -0.59375 -3.71875 L 1.5 -3.71875 L 1.5 0 L -0.59375 0 Z M -0.59375 -3.71875 "/></g></g></g><g fill="#ffffff" fill-opacity="1"><g transform="translate(43.409306, 33.357384)"><g><path d="M -0.59375 -3.71875 L 1.5 -3.71875 L 1.5 0 L -0.59375 0 Z M -0.59375 -3.71875 "/></g></g></g><g fill="#ffffff" fill-opacity="1"><g transform="translate(44.29175, 33.357384)"><g><path d="M -0.59375 -3.71875 L 1.5 -3.71875 L 1.5 0 L -0.59375 0 Z M -0.59375 -3.71875 "/></g></g></g><g fill="#ffffff" fill-opacity="1"><g transform="translate(45.174198, 33.357384)"><g><path d="M -0.59375 -3.71875 L 1.5 -3.71875 L 1.5 0 L -0.59375 0 Z M -0.59375 -3.71875 "/></g></g></g><g fill="#ffffff" fill-opacity="1"><g transform="translate(46.056646, 33.357384)"><g><path d="M -0.59375 -3.71875 L 1.5 -3.71875 L 1.5 0 L -0.59375 0 Z M -0.59375 -3.71875 "/></g></g></g><g fill="#ffffff" fill-opacity="1"><g transform="translate(46.93909, 33.357384)"><g><path d="M -0.59375 -3.71875 L 1.5 -3.71875 L 1.5 0 L -0.59375 0 Z M -0.59375 -3.71875 "/></g></g></g><g fill="#ffffff" fill-opacity="1"><g transform="translate(47.821534, 33.357384)"><g><path d="M -0.59375 -3.71875 L 1.5 -3.71875 L 1.5 0 L -0.59375 0 Z M -0.59375 -3.71875 "/></g></g></g><g fill="#ffffff" fill-opacity="1"><g transform="translate(48.703982, 33.357384)"><g><path d="M -0.59375 -3.71875 L 1.5 -3.71875 L 1.5 0 L -0.59375 0 Z M -0.59375 -3.71875 "/></g></g></g><g fill="#ffffff" fill-opacity="1"><g transform="translate(49.58643, 33.357384)"><g><path d="M -0.59375 -3.71875 L 1.5 -3.71875 L 1.5 0 L -0.59375 0 Z M -0.59375 -3.71875 "/></g></g></g><g fill="#ffffff" fill-opacity="1"><g transform="translate(50.468874, 33.357384)"><g><path d="M -0.59375 -3.71875 L 1.5 -3.71875 L 1.5 0 L -0.59375 0 Z M -0.59375 -3.71875 "/></g></g></g><g fill="#ffffff" fill-opacity="1"><g transform="translate(51.351317, 33.357384)"><g><path d="M -0.59375 -3.71875 L 1.5 -3.71875 L 1.5 0 L -0.59375 0 Z M -0.59375 -3.71875 "/></g></g></g><g fill="#ffffff" fill-opacity="1"><g transform="translate(52.233766, 33.357384)"><g><path d="M -0.59375 -3.71875 L 1.5 -3.71875 L 1.5 0 L -0.59375 0 Z M -0.59375 -3.71875 "/></g></g></g><g fill="#ffffff" fill-opacity="1"><g transform="translate(53.116214, 33.357384)"><g><path d="M -0.59375 -3.71875 L 1.5 -3.71875 L 1.5 0 L -0.59375 0 Z M -0.59375 -3.71875 "/></g></g></g><g fill="#ffffff" fill-opacity="1"><g transform="translate(53.998657, 33.357384)"><g><path d="M -0.59375 -3.71875 L 1.5 -3.71875 L 1.5 0 L -0.59375 0 Z M -0.59375 -3.71875 "/></g></g></g><g fill="#ffffff" fill-opacity="1"><g transform="translate(54.881101, 33.357384)"><g><path d="M -0.59375 -3.71875 L 1.5 -3.71875 L 1.5 0 L -0.59375 0 Z M -0.59375 -3.71875 "/></g></g></g><g fill="#ffffff" fill-opacity="1"><g transform="translate(55.763549, 33.357384)"><g><path d="M -0.59375 -3.71875 L 1.5 -3.71875 L 1.5 0 L -0.59375 0 Z M -0.59375 -3.71875 "/></g></g></g><g fill="#ffffff" fill-opacity="1"><g transform="translate(56.645998, 33.357384)"><g><path d="M -0.59375 -3.71875 L 1.5 -3.71875 L 1.5 0 L -0.59375 0 Z M -0.59375 -3.71875 "/></g></g></g><g fill="#ffffff" fill-opacity="1"><g transform="translate(57.528441, 33.357384)"><g><path d="M -0.59375 -3.71875 L 1.5 -3.71875 L 1.5 0 L -0.59375 0 Z M -0.59375 -3.71875 "/></g></g></g><g fill="#ffffff" fill-opacity="1"><g transform="translate(58.410885, 33.357384)"><g><path d="M -0.59375 -3.71875 L 1.5 -3.71875 L 1.5 0 L -0.59375 0 Z M -0.59375 -3.71875 "/></g></g></g><g fill="#ffffff" fill-opacity="1"><g transform="translate(59.293333, 33.357384)"><g><path d="M -0.59375 -3.71875 L 1.5 -3.71875 L 1.5 0 L -0.59375 0 Z M -0.59375 -3.71875 "/></g></g></g><g fill="#ffffff" fill-opacity="1"><g transform="translate(60.175781, 33.357384)"><g><path d="M -0.59375 -3.71875 L 1.5 -3.71875 L 1.5 0 L -0.59375 0 Z M -0.59375 -3.71875 "/></g></g></g><g fill="#ffffff" fill-opacity="1"><g transform="translate(61.058225, 33.357384)"><g><path d="M -0.59375 -3.71875 L 1.5 -3.71875 L 1.5 0 L -0.59375 0 Z M -0.59375 -3.71875 "/></g></g></g><g fill="#ffffff" fill-opacity="1"><g transform="translate(61.940669, 33.357384)"><g><path d="M -0.59375 -3.71875 L 1.5 -3.71875 L 1.5 0 L -0.59375 0 Z M -0.59375 -3.71875 "/></g></g></g><g fill="#ffffff" fill-opacity="1"><g transform="translate(62.823117, 33.357384)"><g><path d="M -0.59375 -3.71875 L 1.5 -3.71875 L 1.5 0 L -0.59375 0 Z M -0.59375 -3.71875 "/></g></g></g><g fill="#ffffff" fill-opacity="1"><g transform="translate(63.705565, 33.357384)"><g><path d="M -0.59375 -3.71875 L 1.5 -3.71875 L 1.5 0 L -0.59375 0 Z M -0.59375 -3.71875 "/></g></g></g><g fill="#ffffff" fill-opacity="1"><g transform="translate(64.588009, 33.357384)"><g><path d="M -0.59375 -3.71875 L 1.5 -3.71875 L 1.5 0 L -0.59375 0 Z M -0.59375 -3.71875 "/></g></g></g><g fill="#ffffff" fill-opacity="1"><g transform="translate(65.470452, 33.357384)"><g><path d="M -0.59375 -3.71875 L 1.5 -3.71875 L 1.5 0 L -0.59375 0 Z M -0.59375 -3.71875 "/></g></g></g><g fill="#ffffff" fill-opacity="1"><g transform="translate(66.352901, 33.357384)"><g><path d="M -0.59375 -3.71875 L 1.5 -3.71875 L 1.5 0 L -0.59375 0 Z M -0.59375 -3.71875 "/></g></g></g><g fill="#ffffff" fill-opacity="1"><g transform="translate(67.235349, 33.357384)"><g><path d="M -0.59375 -3.71875 L 1.5 -3.71875 L 1.5 0 L -0.59375 0 Z M -0.59375 -3.71875 "/></g></g></g><g fill="#ffffff" fill-opacity="1"><g transform="translate(68.117792, 33.357384)"><g><path d="M -0.59375 -3.71875 L 1.5 -3.71875 L 1.5 0 L -0.59375 0 Z M -0.59375 -3.71875 "/></g></g></g><g fill="#ffffff" fill-opacity="1"><g transform="translate(69.000236, 33.357384)"><g><path d="M -0.59375 -3.71875 L 1.5 -3.71875 L 1.5 0 L -0.59375 0 Z M -0.59375 -3.71875 "/></g></g></g><g fill="#ffffff" fill-opacity="1"><g transform="translate(69.882684, 33.357384)"><g><path d="M -0.59375 -3.71875 L 1.5 -3.71875 L 1.5 0 L -0.59375 0 Z M -0.59375 -3.71875 "/></g></g></g><g fill="#ffffff" fill-opacity="1"><g transform="translate(70.765133, 33.357384)"><g><path d="M -0.59375 -3.71875 L 1.5 -3.71875 L 1.5 0 L -0.59375 0 Z M -0.59375 -3.71875 "/></g></g></g><g fill="#ffffff" fill-opacity="1"><g transform="translate(71.647576, 33.357384)"><g><path d="M -0.59375 -3.71875 L 1.5 -3.71875 L 1.5 0 L -0.59375 0 Z M -0.59375 -3.71875 "/></g></g></g><g fill="#ffffff" fill-opacity="1"><g transform="translate(72.53002, 33.357384)"><g><path d="M -0.59375 -3.71875 L 1.5 -3.71875 L 1.5 0 L -0.59375 0 Z M -0.59375 -3.71875 "/></g></g></g><g fill="#ffffff" fill-opacity="1"><g transform="translate(73.412468, 33.357384)"><g><path d="M -0.59375 -3.71875 L 1.5 -3.71875 L 1.5 0 L -0.59375 0 Z M -0.59375 -3.71875 "/></g></g></g><g fill="#ffffff" fill-opacity="1"><g transform="translate(74.294916, 33.357384)"><g><path d="M -0.59375 -3.71875 L 1.5 -3.71875 L 1.5 0 L -0.59375 0 Z M -0.59375 -3.71875 "/></g></g></g><g fill="#ffffff" fill-opacity="1"><g transform="translate(75.17736, 33.357384)"><g><path d="M -0.59375 -3.71875 L 1.5 -3.71875 L 1.5 0 L -0.59375 0 Z M -0.59375 -3.71875 "/></g></g></g><g fill="#ffffff" fill-opacity="1"><g transform="translate(76.059804, 33.357384)"><g><path d="M -0.59375 -3.71875 L 1.5 -3.71875 L 1.5 0 L -0.59375 0 Z M -0.59375 -3.71875 "/></g></g></g><g fill="#ffffff" fill-opacity="1"><g transform="translate(76.942252, 33.357384)"><g><path d="M -0.59375 -3.71875 L 1.5 -3.71875 L 1.5 0 L -0.59375 0 Z M -0.59375 -3.71875 "/></g></g></g><g fill="#ffffff" fill-opacity="1"><g transform="translate(77.8247, 33.357384)"><g><path d="M -0.59375 -3.71875 L 1.5 -3.71875 L 1.5 0 L -0.59375 0 Z M -0.59375 -3.71875 "/></g></g></g><g fill="#ffffff" fill-opacity="1"><g transform="translate(78.707139, 33.357384)"><g><path d="M -0.59375 -3.71875 L 1.5 -3.71875 L 1.5 0 L -0.59375 0 Z M -0.59375 -3.71875 "/></g></g></g><g fill="#ffffff" fill-opacity="1"><g transform="translate(79.589587, 33.357384)"><g><path d="M -0.59375 -3.71875 L 1.5 -3.71875 L 1.5 0 L -0.59375 0 Z M -0.59375 -3.71875 "/></g></g></g><g fill="#ffffff" fill-opacity="1"><g transform="translate(80.472036, 33.357384)"><g><path d="M -0.59375 -3.71875 L 1.5 -3.71875 L 1.5 0 L -0.59375 0 Z M -0.59375 -3.71875 "/></g></g></g><g fill="#ffffff" fill-opacity="1"><g transform="translate(81.354484, 33.357384)"><g><path d="M -0.59375 -3.71875 L 1.5 -3.71875 L 1.5 0 L -0.59375 0 Z M -0.59375 -3.71875 "/></g></g></g><g fill="#ffffff" fill-opacity="1"><g transform="translate(82.236932, 33.357384)"><g><path d="M -0.59375 -3.71875 L 1.5 -3.71875 L 1.5 0 L -0.59375 0 Z M -0.59375 -3.71875 "/></g></g></g><g fill="#ffffff" fill-opacity="1"><g transform="translate(83.119371, 33.357384)"><g><path d="M -0.59375 -3.71875 L 1.5 -3.71875 L 1.5 0 L -0.59375 0 Z M -0.59375 -3.71875 "/></g></g></g><g fill="#ffffff" fill-opacity="1"><g transform="translate(84.001819, 33.357384)"><g><path d="M -0.59375 -3.71875 L 1.5 -3.71875 L 1.5 0 L -0.59375 0 Z M -0.59375 -3.71875 "/></g></g></g><g fill="#ffffff" fill-opacity="1"><g transform="translate(84.884268, 33.357384)"><g><path d="M -0.59375 -3.71875 L 1.5 -3.71875 L 1.5 0 L -0.59375 0 Z M -0.59375 -3.71875 "/></g></g></g><g fill="#ffffff" fill-opacity="1"><g transform="translate(85.766707, 33.357384)"><g><path d="M -0.59375 -3.71875 L 1.5 -3.71875 L 1.5 0 L -0.59375 0 Z M -0.59375 -3.71875 "/></g></g></g><g fill="#ffffff" fill-opacity="1"><g transform="translate(86.649155, 33.357384)"><g><path d="M -0.59375 -3.71875 L 1.5 -3.71875 L 1.5 0 L -0.59375 0 Z M -0.59375 -3.71875 "/></g></g></g><g fill="#ffffff" fill-opacity="1"><g transform="translate(87.531603, 33.357384)"><g><path d="M -0.59375 -3.71875 L 1.5 -3.71875 L 1.5 0 L -0.59375 0 Z M -0.59375 -3.71875 "/></g></g></g><g fill="#ffffff" fill-opacity="1"><g transform="translate(88.414051, 33.357384)"><g><path d="M -0.59375 -3.71875 L 1.5 -3.71875 L 1.5 0 L -0.59375 0 Z M -0.59375 -3.71875 "/></g></g></g><g fill="#ffffff" fill-opacity="1"><g transform="translate(89.2965, 33.357384)"><g><path d="M -0.59375 -3.71875 L 1.5 -3.71875 L 1.5 0 L -0.59375 0 Z M -0.59375 -3.71875 "/></g></g></g><g fill="#ffffff" fill-opacity="1"><g transform="translate(90.178939, 33.357384)"><g><path d="M -0.59375 -3.71875 L 1.5 -3.71875 L 1.5 0 L -0.59375 0 Z M -0.59375 -3.71875 "/></g></g></g><g fill="#ffffff" fill-opacity="1"><g transform="translate(91.061387, 33.357384)"><g><path d="M 11.21875 -2.203125 C 10.40625 -1.710938 9.625 -1.300781 8.875 -0.96875 C 8.125 -0.644531 7.285156 -0.398438 6.359375 -0.234375 C 5.429688 -0.078125 4.269531 0 2.875 0 L 0 0 L -0.59375 -0.109375 L -0.59375 -3.609375 L 0 -3.71875 L 4.265625 -3.71875 C 6.097656 -3.71875 7.609375 -3.890625 8.796875 -4.234375 C 9.992188 -4.578125 11.046875 -4.941406 11.953125 -5.328125 C 12.390625 -5.523438 12.820312 -5.726562 13.25 -5.9375 C 13.675781 -6.144531 14.097656 -6.3125 14.515625 -6.4375 C 13.785156 -6.675781 13.046875 -6.96875 12.296875 -7.3125 C 11.546875 -7.65625 10.816406 -8.023438 10.109375 -8.421875 C 9.273438 -8.910156 8.453125 -9.40625 7.640625 -9.90625 C 6.835938 -10.40625 6.164062 -10.753906 5.625 -10.953125 L 2.28125 -8.671875 L 1.5 -9.515625 C 1.5 -9.515625 1.613281 -9.664062 1.84375 -9.96875 C 2.082031 -10.28125 2.390625 -10.671875 2.765625 -11.140625 C 3.148438 -11.609375 3.5625 -12.070312 4 -12.53125 C 4.445312 -13 4.894531 -13.382812 5.34375 -13.6875 C 5.800781 -14 6.203125 -14.15625 6.546875 -14.15625 C 7.035156 -14.15625 7.707031 -13.890625 8.5625 -13.359375 C 9.425781 -12.835938 10.554688 -12.179688 11.953125 -11.390625 C 12.804688 -10.898438 13.6875 -10.484375 14.59375 -10.140625 C 15.5 -9.796875 16.335938 -9.53125 17.109375 -9.34375 C 17.878906 -9.164062 18.460938 -9.078125 18.859375 -9.078125 L 21.875 -9.078125 L 22.015625 -8.609375 L 20.84375 -5.8125 L 17.90625 -5.8125 C 17.238281 -5.707031 16.53125 -5.445312 15.78125 -5.03125 C 15.039062 -4.613281 14.285156 -4.148438 13.515625 -3.640625 C 12.742188 -3.128906 11.976562 -2.648438 11.21875 -2.203125 Z M 11.21875 -2.203125 "/></g></g></g><g clip-path="url(#8a9918302f)"><g fill="#ffffff" fill-opacity="1"><g transform="translate(114.630075, 33.357384)"><g><path d="M 7.28125 -25.921875 C 7.175781 -25.867188 6.914062 -25.78125 6.5 -25.65625 C 6.082031 -25.539062 5.628906 -25.421875 5.140625 -25.296875 C 4.648438 -25.171875 4.191406 -25.066406 3.765625 -24.984375 C 3.335938 -24.898438 3.050781 -24.859375 2.90625 -24.859375 C 2.78125 -24.859375 2.582031 -24.941406 2.3125 -25.109375 C 2.039062 -25.285156 1.753906 -25.488281 1.453125 -25.71875 C 1.148438 -25.945312 0.882812 -26.144531 0.65625 -26.3125 C 0.4375 -26.488281 0.328125 -26.578125 0.328125 -26.578125 L 0.4375 -27.171875 C 0.78125 -27.171875 1.171875 -27.175781 1.609375 -27.1875 C 2.054688 -27.195312 2.378906 -27.21875 2.578125 -27.25 L 2.578125 -27.28125 C 2.453125 -27.351562 2.300781 -27.535156 2.125 -27.828125 C 1.957031 -28.117188 1.875 -28.472656 1.875 -28.890625 C 1.875 -29.484375 2.007812 -30.066406 2.28125 -30.640625 C 2.550781 -31.222656 2.929688 -31.703125 3.421875 -32.078125 C 3.910156 -32.453125 4.472656 -32.640625 5.109375 -32.640625 C 5.597656 -32.640625 5.984375 -32.472656 6.265625 -32.140625 C 6.546875 -31.816406 6.753906 -31.445312 6.890625 -31.03125 C 7.023438 -30.613281 7.109375 -30.238281 7.140625 -29.90625 C 7.179688 -29.570312 7.203125 -29.40625 7.203125 -29.40625 L 6.625 -29.265625 C 6.519531 -29.410156 6.347656 -29.585938 6.109375 -29.796875 C 5.878906 -30.003906 5.554688 -30.109375 5.140625 -30.109375 C 4.648438 -30.109375 4.207031 -30.015625 3.8125 -29.828125 C 3.425781 -29.648438 3.125 -29.460938 2.90625 -29.265625 C 3.050781 -28.867188 3.3125 -28.507812 3.6875 -28.1875 C 4.070312 -27.875 4.554688 -27.71875 5.140625 -27.71875 C 5.554688 -27.71875 6.015625 -27.765625 6.515625 -27.859375 C 7.023438 -27.960938 7.550781 -28.113281 8.09375 -28.3125 L 8.265625 -28.046875 Z M 5.875 -22.359375 L 5.875 -5.40625 C 5.875 -5.332031 5.804688 -5.054688 5.671875 -4.578125 C 5.546875 -4.097656 5.394531 -3.546875 5.21875 -2.921875 C 5.050781 -2.296875 4.878906 -1.707031 4.703125 -1.15625 C 4.535156 -0.601562 4.414062 -0.21875 4.34375 0 L 3.265625 0 C 3.265625 0 3.253906 -0.410156 3.234375 -1.234375 C 3.210938 -2.054688 3.179688 -3.132812 3.140625 -4.46875 C 3.109375 -5.800781 3.066406 -7.242188 3.015625 -8.796875 C 2.960938 -10.359375 2.914062 -11.890625 2.875 -13.390625 C 2.84375 -14.898438 2.804688 -16.238281 2.765625 -17.40625 C 2.734375 -18.570312 2.707031 -19.410156 2.6875 -19.921875 L 5.25 -22.359375 Z M 5.875 -22.359375 "/></g></g></g></g></g></g></g><g clip-path="url(#477806204e)"><g transform="matrix(1, 0, 0, 1, 36, 0.000000000000000555)"><g clip-path="url(#72f1c7c069)"><g fill="#812c2c" fill-opacity="1"><g transform="translate(1.753955, 24.621932)"><g><path d="M 13.078125 -5.84375 C 13.398438 -5.78125 13.597656 -5.632812 13.671875 -5.40625 C 13.742188 -5.1875 13.769531 -4.867188 13.75 -4.453125 C 13.738281 -3.703125 13.695312 -3.054688 13.625 -2.515625 C 13.550781 -1.984375 13.460938 -1.539062 13.359375 -1.1875 C 13.253906 -0.75 13.054688 -0.441406 12.765625 -0.265625 C 12.472656 -0.0859375 11.972656 0 11.265625 0 L 1.9375 0 C 1.382812 0 0.992188 -0.0664062 0.765625 -0.203125 C 0.546875 -0.335938 0.4375 -0.5625 0.4375 -0.875 C 0.4375 -1.195312 0.492188 -1.429688 0.609375 -1.578125 C 0.734375 -1.734375 0.878906 -1.867188 1.046875 -1.984375 C 1.222656 -2.097656 1.394531 -2.242188 1.5625 -2.421875 C 1.726562 -2.597656 1.867188 -2.875 1.984375 -3.25 C 2.109375 -3.625 2.171875 -4.164062 2.171875 -4.875 L 2.171875 -12.328125 C 2.171875 -12.941406 2.113281 -13.414062 2 -13.75 C 1.894531 -14.09375 1.753906 -14.351562 1.578125 -14.53125 C 1.410156 -14.71875 1.242188 -14.867188 1.078125 -14.984375 C 0.910156 -15.097656 0.769531 -15.226562 0.65625 -15.375 C 0.539062 -15.53125 0.484375 -15.753906 0.484375 -16.046875 C 0.484375 -16.367188 0.585938 -16.59375 0.796875 -16.71875 C 1.003906 -16.851562 1.398438 -16.921875 1.984375 -16.921875 L 7.015625 -16.921875 C 7.554688 -16.921875 7.9375 -16.851562 8.15625 -16.71875 C 8.375 -16.59375 8.484375 -16.367188 8.484375 -16.046875 C 8.484375 -15.753906 8.425781 -15.53125 8.3125 -15.375 C 8.195312 -15.226562 8.054688 -15.097656 7.890625 -14.984375 C 7.722656 -14.867188 7.550781 -14.71875 7.375 -14.53125 C 7.195312 -14.351562 7.050781 -14.09375 6.9375 -13.75 C 6.820312 -13.414062 6.765625 -12.941406 6.765625 -12.328125 L 6.765625 -3.015625 C 6.765625 -2.660156 6.875 -2.398438 7.09375 -2.234375 C 7.3125 -2.066406 7.742188 -1.984375 8.390625 -1.984375 L 9.0625 -1.984375 C 9.707031 -1.984375 10.210938 -2.25 10.578125 -2.78125 C 10.953125 -3.3125 11.375 -4.035156 11.84375 -4.953125 C 12.050781 -5.359375 12.253906 -5.625 12.453125 -5.75 C 12.660156 -5.882812 12.867188 -5.914062 13.078125 -5.84375 Z M 13.078125 -5.84375 "/></g></g></g><g fill="#812c2c" fill-opacity="1"><g transform="translate(16.156471, 24.621932)"><g><path d="M 14.140625 -2.21875 C 14.265625 -2.238281 14.367188 -2.195312 14.453125 -2.09375 C 14.535156 -1.988281 14.578125 -1.863281 14.578125 -1.71875 C 14.578125 -1.363281 14.414062 -1.039062 14.09375 -0.75 C 13.769531 -0.457031 13.378906 -0.226562 12.921875 -0.0625 C 12.472656 0.101562 12.039062 0.1875 11.625 0.1875 C 11.125 0.1875 10.65625 0.0625 10.21875 -0.1875 C 9.789062 -0.4375 9.453125 -0.878906 9.203125 -1.515625 C 8.566406 -0.878906 7.859375 -0.4375 7.078125 -0.1875 C 6.304688 0.0625 5.554688 0.1875 4.828125 0.1875 C 4.023438 0.1875 3.304688 0.046875 2.671875 -0.234375 C 2.035156 -0.523438 1.53125 -0.929688 1.15625 -1.453125 C 0.789062 -1.984375 0.609375 -2.578125 0.609375 -3.234375 C 0.609375 -4.378906 1.097656 -5.335938 2.078125 -6.109375 C 3.054688 -6.890625 4.523438 -7.28125 6.484375 -7.28125 C 6.628906 -7.28125 6.785156 -7.273438 6.953125 -7.265625 C 7.117188 -7.253906 7.378906 -7.242188 7.734375 -7.234375 C 7.554688 -7.765625 7.273438 -8.25 6.890625 -8.6875 C 6.515625 -9.132812 5.953125 -9.359375 5.203125 -9.359375 C 4.796875 -9.359375 4.347656 -9.265625 3.859375 -9.078125 C 3.378906 -8.890625 2.960938 -8.691406 2.609375 -8.484375 C 2.460938 -8.390625 2.304688 -8.359375 2.140625 -8.390625 C 1.984375 -8.429688 1.875 -8.53125 1.8125 -8.6875 C 1.75 -8.851562 1.78125 -9.0625 1.90625 -9.3125 C 2.113281 -9.695312 2.457031 -10.085938 2.9375 -10.484375 C 3.414062 -10.878906 3.992188 -11.203125 4.671875 -11.453125 C 5.359375 -11.710938 6.113281 -11.84375 6.9375 -11.84375 C 7.8125 -11.84375 8.53125 -11.703125 9.09375 -11.421875 C 9.664062 -11.140625 10.125 -10.769531 10.46875 -10.3125 C 10.820312 -9.863281 11.101562 -9.378906 11.3125 -8.859375 C 11.519531 -8.335938 11.707031 -7.832031 11.875 -7.34375 L 13.09375 -3.53125 C 13.226562 -3.15625 13.359375 -2.835938 13.484375 -2.578125 C 13.617188 -2.328125 13.835938 -2.207031 14.140625 -2.21875 Z M 6.84375 -1.953125 C 7.375 -1.953125 7.832031 -2.097656 8.21875 -2.390625 C 8.601562 -2.679688 8.75 -3.050781 8.65625 -3.5 C 8.632812 -3.632812 8.578125 -3.835938 8.484375 -4.109375 C 8.390625 -4.378906 8.273438 -4.671875 8.140625 -4.984375 C 8.046875 -5.253906 7.90625 -5.453125 7.71875 -5.578125 C 7.53125 -5.710938 7.238281 -5.78125 6.84375 -5.78125 C 6.175781 -5.78125 5.640625 -5.617188 5.234375 -5.296875 C 4.835938 -4.972656 4.628906 -4.550781 4.609375 -4.03125 C 4.609375 -3.4375 4.816406 -2.941406 5.234375 -2.546875 C 5.660156 -2.148438 6.195312 -1.953125 6.84375 -1.953125 Z M 6.84375 -1.953125 "/></g></g></g><g fill="#812c2c" fill-opacity="1"><g transform="translate(30.945631, 24.621932)"><g><path d="M 3.09375 -12.6875 C 2.5 -12.6875 2.046875 -12.863281 1.734375 -13.21875 C 1.429688 -13.570312 1.28125 -13.976562 1.28125 -14.4375 C 1.28125 -14.882812 1.421875 -15.320312 1.703125 -15.75 C 1.984375 -16.175781 2.351562 -16.53125 2.8125 -16.8125 C 3.269531 -17.09375 3.75 -17.234375 4.25 -17.234375 C 4.78125 -17.253906 5.234375 -17.097656 5.609375 -16.765625 C 5.992188 -16.429688 6.195312 -15.992188 6.21875 -15.453125 C 6.21875 -14.953125 6.066406 -14.488281 5.765625 -14.0625 C 5.460938 -13.644531 5.070312 -13.3125 4.59375 -13.0625 C 4.125 -12.8125 3.625 -12.6875 3.09375 -12.6875 Z M 1.6875 -3.53125 L 1.671875 -7.59375 C 1.671875 -7.988281 1.578125 -8.285156 1.390625 -8.484375 C 1.203125 -8.691406 1.019531 -8.867188 0.84375 -9.015625 C 0.664062 -9.171875 0.578125 -9.375 0.578125 -9.625 C 0.578125 -9.832031 0.632812 -9.992188 0.75 -10.109375 C 0.875 -10.234375 1.082031 -10.359375 1.375 -10.484375 C 1.613281 -10.597656 1.9375 -10.734375 2.34375 -10.890625 C 2.75 -11.046875 3.164062 -11.191406 3.59375 -11.328125 C 4.019531 -11.460938 4.398438 -11.578125 4.734375 -11.671875 C 5.078125 -11.765625 5.296875 -11.8125 5.390625 -11.8125 C 5.828125 -11.8125 6.046875 -11.507812 6.046875 -10.90625 L 6.015625 -7.59375 L 6.015625 -3.53125 C 6.015625 -2.976562 6.070312 -2.578125 6.1875 -2.328125 C 6.3125 -2.078125 6.457031 -1.894531 6.625 -1.78125 C 6.800781 -1.675781 6.945312 -1.550781 7.0625 -1.40625 C 7.1875 -1.269531 7.25 -1.039062 7.25 -0.71875 C 7.25 -0.414062 7.144531 -0.21875 6.9375 -0.125 C 6.726562 -0.0390625 6.445312 0 6.09375 0 L 1.734375 0 C 1.335938 0 1.03125 -0.0507812 0.8125 -0.15625 C 0.59375 -0.257812 0.484375 -0.46875 0.484375 -0.78125 C 0.484375 -1.09375 0.539062 -1.3125 0.65625 -1.4375 C 0.78125 -1.5625 0.921875 -1.675781 1.078125 -1.78125 C 1.242188 -1.894531 1.382812 -2.078125 1.5 -2.328125 C 1.625 -2.578125 1.6875 -2.976562 1.6875 -3.53125 Z M 1.6875 -3.53125 "/></g></g></g><g clip-path="url(#a8d48476c1)"><g fill="#812c2c" fill-opacity="1"><g transform="translate(38.581867, 24.621932)"><g><path d="M 8.828125 -11.84375 C 9.660156 -11.863281 10.4375 -11.660156 11.15625 -11.234375 C 11.882812 -10.816406 12.476562 -10.207031 12.9375 -9.40625 C 13.40625 -8.613281 13.640625 -7.644531 13.640625 -6.5 C 13.640625 -5.207031 13.441406 -4.125 13.046875 -3.25 C 12.648438 -2.382812 12.148438 -1.691406 11.546875 -1.171875 C 10.953125 -0.660156 10.332031 -0.296875 9.6875 -0.078125 C 9.039062 0.128906 8.472656 0.234375 7.984375 0.234375 C 7.410156 0.234375 6.941406 0.175781 6.578125 0.0625 C 6.222656 -0.0390625 5.921875 -0.160156 5.671875 -0.296875 C 5.421875 -0.429688 5.191406 -0.550781 4.984375 -0.65625 C 4.785156 -0.769531 4.566406 -0.816406 4.328125 -0.796875 C 4.066406 -0.785156 3.796875 -0.707031 3.515625 -0.5625 C 3.234375 -0.414062 2.953125 -0.269531 2.671875 -0.125 C 2.398438 0.0078125 2.144531 0.078125 1.90625 0.078125 C 1.25 0.078125 0.984375 -0.226562 1.109375 -0.84375 C 1.171875 -1.21875 1.222656 -1.632812 1.265625 -2.09375 C 1.304688 -2.5625 1.328125 -3.097656 1.328125 -3.703125 L 1.3125 -12.9375 C 1.3125 -13.351562 1.21875 -13.660156 1.03125 -13.859375 C 0.84375 -14.066406 0.65625 -14.238281 0.46875 -14.375 C 0.28125 -14.519531 0.1875 -14.71875 0.1875 -14.96875 C 0.1875 -15.175781 0.25 -15.335938 0.375 -15.453125 C 0.507812 -15.578125 0.722656 -15.703125 1.015625 -15.828125 C 1.253906 -15.941406 1.578125 -16.078125 1.984375 -16.234375 C 2.390625 -16.390625 2.804688 -16.535156 3.234375 -16.671875 C 3.660156 -16.804688 4.039062 -16.921875 4.375 -17.015625 C 4.707031 -17.109375 4.925781 -17.15625 5.03125 -17.15625 C 5.46875 -17.15625 5.6875 -16.851562 5.6875 -16.25 L 5.65625 -12.9375 L 5.65625 -10.46875 C 6.007812 -10.882812 6.4375 -11.210938 6.9375 -11.453125 C 7.445312 -11.691406 8.078125 -11.820312 8.828125 -11.84375 Z M 7.875 -1.671875 C 8.332031 -1.671875 8.675781 -1.835938 8.90625 -2.171875 C 9.132812 -2.515625 9.296875 -2.910156 9.390625 -3.359375 C 9.492188 -3.804688 9.546875 -4.207031 9.546875 -4.5625 C 9.546875 -5.4375 9.460938 -6.242188 9.296875 -6.984375 C 9.128906 -7.722656 8.878906 -8.316406 8.546875 -8.765625 C 8.210938 -9.222656 7.789062 -9.453125 7.28125 -9.453125 C 6.820312 -9.453125 6.410156 -9.234375 6.046875 -8.796875 C 5.691406 -8.359375 5.519531 -7.679688 5.53125 -6.765625 L 5.578125 -5.25 C 5.597656 -4.101562 5.832031 -3.21875 6.28125 -2.59375 C 6.738281 -1.976562 7.269531 -1.671875 7.875 -1.671875 Z M 7.875 -1.671875 "/></g></g></g></g><g clip-path="url(#cab2008126)"><g fill="#ffc700" fill-opacity="1"><g transform="translate(0.429654, 23.297631)"><g><path d="M 13.078125 -5.84375 C 13.398438 -5.78125 13.597656 -5.632812 13.671875 -5.40625 C 13.742188 -5.1875 13.769531 -4.867188 13.75 -4.453125 C 13.738281 -3.703125 13.695312 -3.054688 13.625 -2.515625 C 13.550781 -1.984375 13.460938 -1.539062 13.359375 -1.1875 C 13.253906 -0.75 13.054688 -0.441406 12.765625 -0.265625 C 12.472656 -0.0859375 11.972656 0 11.265625 0 L 1.9375 0 C 1.382812 0 0.992188 -0.0664062 0.765625 -0.203125 C 0.546875 -0.335938 0.4375 -0.5625 0.4375 -0.875 C 0.4375 -1.195312 0.492188 -1.429688 0.609375 -1.578125 C 0.734375 -1.734375 0.878906 -1.867188 1.046875 -1.984375 C 1.222656 -2.097656 1.394531 -2.242188 1.5625 -2.421875 C 1.726562 -2.597656 1.867188 -2.875 1.984375 -3.25 C 2.109375 -3.625 2.171875 -4.164062 2.171875 -4.875 L 2.171875 -12.328125 C 2.171875 -12.941406 2.113281 -13.414062 2 -13.75 C 1.894531 -14.09375 1.753906 -14.351562 1.578125 -14.53125 C 1.410156 -14.71875 1.242188 -14.867188 1.078125 -14.984375 C 0.910156 -15.097656 0.769531 -15.226562 0.65625 -15.375 C 0.539062 -15.53125 0.484375 -15.753906 0.484375 -16.046875 C 0.484375 -16.367188 0.585938 -16.59375 0.796875 -16.71875 C 1.003906 -16.851562 1.398438 -16.921875 1.984375 -16.921875 L 7.015625 -16.921875 C 7.554688 -16.921875 7.9375 -16.851562 8.15625 -16.71875 C 8.375 -16.59375 8.484375 -16.367188 8.484375 -16.046875 C 8.484375 -15.753906 8.425781 -15.53125 8.3125 -15.375 C 8.195312 -15.226562 8.054688 -15.097656 7.890625 -14.984375 C 7.722656 -14.867188 7.550781 -14.71875 7.375 -14.53125 C 7.195312 -14.351562 7.050781 -14.09375 6.9375 -13.75 C 6.820312 -13.414062 6.765625 -12.941406 6.765625 -12.328125 L 6.765625 -3.015625 C 6.765625 -2.660156 6.875 -2.398438 7.09375 -2.234375 C 7.3125 -2.066406 7.742188 -1.984375 8.390625 -1.984375 L 9.0625 -1.984375 C 9.707031 -1.984375 10.210938 -2.25 10.578125 -2.78125 C 10.953125 -3.3125 11.375 -4.035156 11.84375 -4.953125 C 12.050781 -5.359375 12.253906 -5.625 12.453125 -5.75 C 12.660156 -5.882812 12.867188 -5.914062 13.078125 -5.84375 Z M 13.078125 -5.84375 "/></g></g></g></g><g fill="#ffc700" fill-opacity="1"><g transform="translate(14.832171, 23.297631)"><g><path d="M 14.140625 -2.21875 C 14.265625 -2.238281 14.367188 -2.195312 14.453125 -2.09375 C 14.535156 -1.988281 14.578125 -1.863281 14.578125 -1.71875 C 14.578125 -1.363281 14.414062 -1.039062 14.09375 -0.75 C 13.769531 -0.457031 13.378906 -0.226562 12.921875 -0.0625 C 12.472656 0.101562 12.039062 0.1875 11.625 0.1875 C 11.125 0.1875 10.65625 0.0625 10.21875 -0.1875 C 9.789062 -0.4375 9.453125 -0.878906 9.203125 -1.515625 C 8.566406 -0.878906 7.859375 -0.4375 7.078125 -0.1875 C 6.304688 0.0625 5.554688 0.1875 4.828125 0.1875 C 4.023438 0.1875 3.304688 0.046875 2.671875 -0.234375 C 2.035156 -0.523438 1.53125 -0.929688 1.15625 -1.453125 C 0.789062 -1.984375 0.609375 -2.578125 0.609375 -3.234375 C 0.609375 -4.378906 1.097656 -5.335938 2.078125 -6.109375 C 3.054688 -6.890625 4.523438 -7.28125 6.484375 -7.28125 C 6.628906 -7.28125 6.785156 -7.273438 6.953125 -7.265625 C 7.117188 -7.253906 7.378906 -7.242188 7.734375 -7.234375 C 7.554688 -7.765625 7.273438 -8.25 6.890625 -8.6875 C 6.515625 -9.132812 5.953125 -9.359375 5.203125 -9.359375 C 4.796875 -9.359375 4.347656 -9.265625 3.859375 -9.078125 C 3.378906 -8.890625 2.960938 -8.691406 2.609375 -8.484375 C 2.460938 -8.390625 2.304688 -8.359375 2.140625 -8.390625 C 1.984375 -8.429688 1.875 -8.53125 1.8125 -8.6875 C 1.75 -8.851562 1.78125 -9.0625 1.90625 -9.3125 C 2.113281 -9.695312 2.457031 -10.085938 2.9375 -10.484375 C 3.414062 -10.878906 3.992188 -11.203125 4.671875 -11.453125 C 5.359375 -11.710938 6.113281 -11.84375 6.9375 -11.84375 C 7.8125 -11.84375 8.53125 -11.703125 9.09375 -11.421875 C 9.664062 -11.140625 10.125 -10.769531 10.46875 -10.3125 C 10.820312 -9.863281 11.101562 -9.378906 11.3125 -8.859375 C 11.519531 -8.335938 11.707031 -7.832031 11.875 -7.34375 L 13.09375 -3.53125 C 13.226562 -3.15625 13.359375 -2.835938 13.484375 -2.578125 C 13.617188 -2.328125 13.835938 -2.207031 14.140625 -2.21875 Z M 6.84375 -1.953125 C 7.375 -1.953125 7.832031 -2.097656 8.21875 -2.390625 C 8.601562 -2.679688 8.75 -3.050781 8.65625 -3.5 C 8.632812 -3.632812 8.578125 -3.835938 8.484375 -4.109375 C 8.390625 -4.378906 8.273438 -4.671875 8.140625 -4.984375 C 8.046875 -5.253906 7.90625 -5.453125 7.71875 -5.578125 C 7.53125 -5.710938 7.238281 -5.78125 6.84375 -5.78125 C 6.175781 -5.78125 5.640625 -5.617188 5.234375 -5.296875 C 4.835938 -4.972656 4.628906 -4.550781 4.609375 -4.03125 C 4.609375 -3.4375 4.816406 -2.941406 5.234375 -2.546875 C 5.660156 -2.148438 6.195312 -1.953125 6.84375 -1.953125 Z M 6.84375 -1.953125 "/></g></g></g><g fill="#ffc700" fill-opacity="1"><g transform="translate(29.621331, 23.297631)"><g><path d="M 3.09375 -12.6875 C 2.5 -12.6875 2.046875 -12.863281 1.734375 -13.21875 C 1.429688 -13.570312 1.28125 -13.976562 1.28125 -14.4375 C 1.28125 -14.882812 1.421875 -15.320312 1.703125 -15.75 C 1.984375 -16.175781 2.351562 -16.53125 2.8125 -16.8125 C 3.269531 -17.09375 3.75 -17.234375 4.25 -17.234375 C 4.78125 -17.253906 5.234375 -17.097656 5.609375 -16.765625 C 5.992188 -16.429688 6.195312 -15.992188 6.21875 -15.453125 C 6.21875 -14.953125 6.066406 -14.488281 5.765625 -14.0625 C 5.460938 -13.644531 5.070312 -13.3125 4.59375 -13.0625 C 4.125 -12.8125 3.625 -12.6875 3.09375 -12.6875 Z M 1.6875 -3.53125 L 1.671875 -7.59375 C 1.671875 -7.988281 1.578125 -8.285156 1.390625 -8.484375 C 1.203125 -8.691406 1.019531 -8.867188 0.84375 -9.015625 C 0.664062 -9.171875 0.578125 -9.375 0.578125 -9.625 C 0.578125 -9.832031 0.632812 -9.992188 0.75 -10.109375 C 0.875 -10.234375 1.082031 -10.359375 1.375 -10.484375 C 1.613281 -10.597656 1.9375 -10.734375 2.34375 -10.890625 C 2.75 -11.046875 3.164062 -11.191406 3.59375 -11.328125 C 4.019531 -11.460938 4.398438 -11.578125 4.734375 -11.671875 C 5.078125 -11.765625 5.296875 -11.8125 5.390625 -11.8125 C 5.828125 -11.8125 6.046875 -11.507812 6.046875 -10.90625 L 6.015625 -7.59375 L 6.015625 -3.53125 C 6.015625 -2.976562 6.070312 -2.578125 6.1875 -2.328125 C 6.3125 -2.078125 6.457031 -1.894531 6.625 -1.78125 C 6.800781 -1.675781 6.945312 -1.550781 7.0625 -1.40625 C 7.1875 -1.269531 7.25 -1.039062 7.25 -0.71875 C 7.25 -0.414062 7.144531 -0.21875 6.9375 -0.125 C 6.726562 -0.0390625 6.445312 0 6.09375 0 L 1.734375 0 C 1.335938 0 1.03125 -0.0507812 0.8125 -0.15625 C 0.59375 -0.257812 0.484375 -0.46875 0.484375 -0.78125 C 0.484375 -1.09375 0.539062 -1.3125 0.65625 -1.4375 C 0.78125 -1.5625 0.921875 -1.675781 1.078125 -1.78125 C 1.242188 -1.894531 1.382812 -2.078125 1.5 -2.328125 C 1.625 -2.578125 1.6875 -2.976562 1.6875 -3.53125 Z M 1.6875 -3.53125 "/></g></g></g><g fill="#ffc700" fill-opacity="1"><g transform="translate(37.257566, 23.297631)"><g><path d="M 8.828125 -11.84375 C 9.660156 -11.863281 10.4375 -11.660156 11.15625 -11.234375 C 11.882812 -10.816406 12.476562 -10.207031 12.9375 -9.40625 C 13.40625 -8.613281 13.640625 -7.644531 13.640625 -6.5 C 13.640625 -5.207031 13.441406 -4.125 13.046875 -3.25 C 12.648438 -2.382812 12.148438 -1.691406 11.546875 -1.171875 C 10.953125 -0.660156 10.332031 -0.296875 9.6875 -0.078125 C 9.039062 0.128906 8.472656 0.234375 7.984375 0.234375 C 7.410156 0.234375 6.941406 0.175781 6.578125 0.0625 C 6.222656 -0.0390625 5.921875 -0.160156 5.671875 -0.296875 C 5.421875 -0.429688 5.191406 -0.550781 4.984375 -0.65625 C 4.785156 -0.769531 4.566406 -0.816406 4.328125 -0.796875 C 4.066406 -0.785156 3.796875 -0.707031 3.515625 -0.5625 C 3.234375 -0.414062 2.953125 -0.269531 2.671875 -0.125 C 2.398438 0.0078125 2.144531 0.078125 1.90625 0.078125 C 1.25 0.078125 0.984375 -0.226562 1.109375 -0.84375 C 1.171875 -1.21875 1.222656 -1.632812 1.265625 -2.09375 C 1.304688 -2.5625 1.328125 -3.097656 1.328125 -3.703125 L 1.3125 -12.9375 C 1.3125 -13.351562 1.21875 -13.660156 1.03125 -13.859375 C 0.84375 -14.066406 0.65625 -14.238281 0.46875 -14.375 C 0.28125 -14.519531 0.1875 -14.71875 0.1875 -14.96875 C 0.1875 -15.175781 0.25 -15.335938 0.375 -15.453125 C 0.507812 -15.578125 0.722656 -15.703125 1.015625 -15.828125 C 1.253906 -15.941406 1.578125 -16.078125 1.984375 -16.234375 C 2.390625 -16.390625 2.804688 -16.535156 3.234375 -16.671875 C 3.660156 -16.804688 4.039062 -16.921875 4.375 -17.015625 C 4.707031 -17.109375 4.925781 -17.15625 5.03125 -17.15625 C 5.46875 -17.15625 5.6875 -16.851562 5.6875 -16.25 L 5.65625 -12.9375 L 5.65625 -10.46875 C 6.007812 -10.882812 6.4375 -11.210938 6.9375 -11.453125 C 7.445312 -11.691406 8.078125 -11.820312 8.828125 -11.84375 Z M 7.875 -1.671875 C 8.332031 -1.671875 8.675781 -1.835938 8.90625 -2.171875 C 9.132812 -2.515625 9.296875 -2.910156 9.390625 -3.359375 C 9.492188 -3.804688 9.546875 -4.207031 9.546875 -4.5625 C 9.546875 -5.4375 9.460938 -6.242188 9.296875 -6.984375 C 9.128906 -7.722656 8.878906 -8.316406 8.546875 -8.765625 C 8.210938 -9.222656 7.789062 -9.453125 7.28125 -9.453125 C 6.820312 -9.453125 6.410156 -9.234375 6.046875 -8.796875 C 5.691406 -8.359375 5.519531 -7.679688 5.53125 -6.765625 L 5.578125 -5.25 C 5.597656 -4.101562 5.832031 -3.21875 6.28125 -2.59375 C 6.738281 -1.976562 7.269531 -1.671875 7.875 -1.671875 Z M 7.875 -1.671875 "/></g></g></g></g></g></g></g></g></g></svg>